<svg xmlns:xlink="http://www.w3.org/1999/xlink" width="75ex" height="27.176ex" style="font-size: 15px; vertical-align: -13.505ex; max-width: 450;" viewBox="0 -5886.2 32291.5 11700.7" role="img" focusable="false" xmlns="http://www.w3.org/2000/svg">
<defs>
<path stroke-width="1" id="E1-MJMATHI-66" d="M118 -162Q120 -162 124 -164T135 -167T147 -168Q160 -168 171 -155T187 -126Q197 -99 221 27T267 267T289 382V385H242Q195 385 192 387Q188 390 188 397L195 425Q197 430 203 430T250 431Q298 431 298 432Q298 434 307 482T319 540Q356 705 465 705Q502 703 526 683T550 630Q550 594 529 578T487 561Q443 561 443 603Q443 622 454 636T478 657L487 662Q471 668 457 668Q445 668 434 658T419 630Q412 601 403 552T387 469T380 433Q380 431 435 431Q480 431 487 430T498 424Q499 420 496 407T491 391Q489 386 482 386T428 385H372L349 263Q301 15 282 -47Q255 -132 212 -173Q175 -205 139 -205Q107 -205 81 -186T55 -132Q55 -95 76 -78T118 -61Q162 -61 162 -103Q162 -122 151 -136T127 -157L118 -162Z"></path>
<path stroke-width="1" id="E1-MJMAIN-28" d="M94 250Q94 319 104 381T127 488T164 576T202 643T244 695T277 729T302 750H315H319Q333 750 333 741Q333 738 316 720T275 667T226 581T184 443T167 250T184 58T225 -81T274 -167T316 -220T333 -241Q333 -250 318 -250H315H302L274 -226Q180 -141 137 -14T94 250Z"></path>
<path stroke-width="1" id="E1-MJMATHI-78" d="M52 289Q59 331 106 386T222 442Q257 442 286 424T329 379Q371 442 430 442Q467 442 494 420T522 361Q522 332 508 314T481 292T458 288Q439 288 427 299T415 328Q415 374 465 391Q454 404 425 404Q412 404 406 402Q368 386 350 336Q290 115 290 78Q290 50 306 38T341 26Q378 26 414 59T463 140Q466 150 469 151T485 153H489Q504 153 504 145Q504 144 502 134Q486 77 440 33T333 -11Q263 -11 227 52Q186 -10 133 -10H127Q78 -10 57 16T35 71Q35 103 54 123T99 143Q142 143 142 101Q142 81 130 66T107 46T94 41L91 40Q91 39 97 36T113 29T132 26Q168 26 194 71Q203 87 217 139T245 247T261 313Q266 340 266 352Q266 380 251 392T217 404Q177 404 142 372T93 290Q91 281 88 280T72 278H58Q52 284 52 289Z"></path>
<path stroke-width="1" id="E1-MJMAIN-29" d="M60 749L64 750Q69 750 74 750H86L114 726Q208 641 251 514T294 250Q294 182 284 119T261 12T224 -76T186 -143T145 -194T113 -227T90 -246Q87 -249 86 -250H74Q66 -250 63 -250T58 -247T55 -238Q56 -237 66 -225Q221 -64 221 250T66 725Q56 737 55 738Q55 746 60 749Z"></path>
<path stroke-width="1" id="E1-MJMAIN-2217" d="M229 286Q216 420 216 436Q216 454 240 464Q241 464 245 464T251 465Q263 464 273 456T283 436Q283 419 277 356T270 286L328 328Q384 369 389 372T399 375Q412 375 423 365T435 338Q435 325 425 315Q420 312 357 282T289 250L355 219L425 184Q434 175 434 161Q434 146 425 136T401 125Q393 125 383 131T328 171L270 213Q283 79 283 63Q283 53 276 44T250 35Q231 35 224 44T216 63Q216 80 222 143T229 213L171 171Q115 130 110 127Q106 124 100 124Q87 124 76 134T64 161Q64 166 64 169T67 175T72 181T81 188T94 195T113 204T138 215T170 230T210 250L74 315Q65 324 65 338Q65 353 74 363T98 374Q106 374 116 368T171 328L229 286Z"></path>
<path stroke-width="1" id="E1-MJMATHI-79" d="M21 287Q21 301 36 335T84 406T158 442Q199 442 224 419T250 355Q248 336 247 334Q247 331 231 288T198 191T182 105Q182 62 196 45T238 27Q261 27 281 38T312 61T339 94Q339 95 344 114T358 173T377 247Q415 397 419 404Q432 431 462 431Q475 431 483 424T494 412T496 403Q496 390 447 193T391 -23Q363 -106 294 -155T156 -205Q111 -205 77 -183T43 -117Q43 -95 50 -80T69 -58T89 -48T106 -45Q150 -45 150 -87Q150 -107 138 -122T115 -142T102 -147L99 -148Q101 -153 118 -160T152 -167H160Q177 -167 186 -165Q219 -156 247 -127T290 -65T313 -9T321 21L315 17Q309 13 296 6T270 -6Q250 -11 231 -11Q185 -11 150 11T104 82Q103 89 103 113Q103 170 138 262T173 379Q173 380 173 381Q173 390 173 393T169 400T158 404H154Q131 404 112 385T82 344T65 302T57 280Q55 278 41 278H27Q21 284 21 287Z"></path>
<path stroke-width="1" id="E1-MJMAIN-3D" d="M56 347Q56 360 70 367H707Q722 359 722 347Q722 336 708 328L390 327H72Q56 332 56 347ZM56 153Q56 168 72 173H708Q722 163 722 153Q722 140 707 133H70Q56 140 56 153Z"></path>
<path stroke-width="1" id="E1-MJMAIN-2212" d="M84 237T84 250T98 270H679Q694 262 694 250T679 230H98Q84 237 84 250Z"></path>
<path stroke-width="1" id="E1-MJMAIN-6C" d="M42 46H56Q95 46 103 60V68Q103 77 103 91T103 124T104 167T104 217T104 272T104 329Q104 366 104 407T104 482T104 542T103 586T103 603Q100 622 89 628T44 637H26V660Q26 683 28 683L38 684Q48 685 67 686T104 688Q121 689 141 690T171 693T182 694H185V379Q185 62 186 60Q190 52 198 49Q219 46 247 46H263V0H255L232 1Q209 2 183 2T145 3T107 3T57 1L34 0H26V46H42Z"></path>
<path stroke-width="1" id="E1-MJMAIN-6E" d="M41 46H55Q94 46 102 60V68Q102 77 102 91T102 122T103 161T103 203Q103 234 103 269T102 328V351Q99 370 88 376T43 385H25V408Q25 431 27 431L37 432Q47 433 65 434T102 436Q119 437 138 438T167 441T178 442H181V402Q181 364 182 364T187 369T199 384T218 402T247 421T285 437Q305 442 336 442Q450 438 463 329Q464 322 464 190V104Q464 66 466 59T477 49Q498 46 526 46H542V0H534L510 1Q487 2 460 2T422 3Q319 3 310 0H302V46H318Q379 46 379 62Q380 64 380 200Q379 335 378 343Q372 371 358 385T334 402T308 404Q263 404 229 370Q202 343 195 315T187 232V168V108Q187 78 188 68T191 55T200 49Q221 46 249 46H265V0H257L234 1Q210 2 183 2T145 3Q42 3 33 0H25V46H41Z"></path>
<path stroke-width="1" id="E1-MJMAIN-2C" d="M78 35T78 60T94 103T137 121Q165 121 187 96T210 8Q210 -27 201 -60T180 -117T154 -158T130 -185T117 -194Q113 -194 104 -185T95 -172Q95 -168 106 -156T131 -126T157 -76T173 -3V9L172 8Q170 7 167 6T161 3T152 1T140 0Q113 0 96 17Z"></path>
<path stroke-width="1" id="E1-MJMAIN-3E" d="M84 520Q84 528 88 533T96 539L99 540Q106 540 253 471T544 334L687 265Q694 260 694 250T687 235Q685 233 395 96L107 -40H101Q83 -38 83 -20Q83 -19 83 -17Q82 -10 98 -1Q117 9 248 71Q326 108 378 132L626 250L378 368Q90 504 86 509Q84 513 84 520Z"></path>
<path stroke-width="1" id="E1-MJMAIN-30" d="M96 585Q152 666 249 666Q297 666 345 640T423 548Q460 465 460 320Q460 165 417 83Q397 41 362 16T301 -15T250 -22Q224 -22 198 -16T137 16T82 83Q39 165 39 320Q39 494 96 585ZM321 597Q291 629 250 629Q208 629 178 597Q153 571 145 525T137 333Q137 175 145 125T181 46Q209 16 250 16Q290 16 318 46Q347 76 354 130T362 333Q362 478 354 524T321 597Z"></path>
<path stroke-width="1" id="E1-MJMAIN-31" d="M213 578L200 573Q186 568 160 563T102 556H83V602H102Q149 604 189 617T245 641T273 663Q275 666 285 666Q294 666 302 660V361L303 61Q310 54 315 52T339 48T401 46H427V0H416Q395 3 257 3Q121 3 100 0H88V46H114Q136 46 152 46T177 47T193 50T201 52T207 57T213 61V578Z"></path>
<path stroke-width="1" id="E1-MJMAIN-3C" d="M694 -11T694 -19T688 -33T678 -40Q671 -40 524 29T234 166L90 235Q83 240 83 250Q83 261 91 266Q664 540 678 540Q681 540 687 534T694 519T687 505Q686 504 417 376L151 250L417 124Q686 -4 687 -5Q694 -11 694 -19Z"></path>
<path stroke-width="1" id="E1-MJMATHI-65" d="M39 168Q39 225 58 272T107 350T174 402T244 433T307 442H310Q355 442 388 420T421 355Q421 265 310 237Q261 224 176 223Q139 223 138 221Q138 219 132 186T125 128Q125 81 146 54T209 26T302 45T394 111Q403 121 406 121Q410 121 419 112T429 98T420 82T390 55T344 24T281 -1T205 -11Q126 -11 83 42T39 168ZM373 353Q367 405 305 405Q272 405 244 391T199 357T170 316T154 280T149 261Q149 260 169 260Q282 260 327 284T373 353Z"></path>
<path stroke-width="1" id="E1-MJMAIN-32" d="M109 429Q82 429 66 447T50 491Q50 562 103 614T235 666Q326 666 387 610T449 465Q449 422 429 383T381 315T301 241Q265 210 201 149L142 93L218 92Q375 92 385 97Q392 99 409 186V189H449V186Q448 183 436 95T421 3V0H50V19V31Q50 38 56 46T86 81Q115 113 136 137Q145 147 170 174T204 211T233 244T261 278T284 308T305 340T320 369T333 401T340 431T343 464Q343 527 309 573T212 619Q179 619 154 602T119 569T109 550Q109 549 114 549Q132 549 151 535T170 489Q170 464 154 447T109 429Z"></path>
<path stroke-width="1" id="E1-MJMAIN-34" d="M462 0Q444 3 333 3Q217 3 199 0H190V46H221Q241 46 248 46T265 48T279 53T286 61Q287 63 287 115V165H28V211L179 442Q332 674 334 675Q336 677 355 677H373L379 671V211H471V165H379V114Q379 73 379 66T385 54Q393 47 442 46H471V0H462ZM293 211V545L74 212L183 211H293Z"></path>
<path stroke-width="1" id="E1-MJMAIN-2B" d="M56 237T56 250T70 270H369V420L370 570Q380 583 389 583Q402 583 409 568V270H707Q722 262 722 250T707 230H409V-68Q401 -82 391 -82H389H387Q375 -82 369 -68V230H70Q56 237 56 250Z"></path>
<path stroke-width="1" id="E1-MJSZ1-221A" d="M263 249Q264 249 315 130T417 -108T470 -228L725 302Q981 837 982 839Q989 850 1001 850Q1008 850 1013 844T1020 832V826L741 243Q645 43 540 -176Q479 -303 469 -324T453 -348Q449 -350 436 -350L424 -349L315 -96Q206 156 205 156L171 130Q138 104 137 104L111 130L263 249Z"></path>
<path stroke-width="1" id="E1-MJMAIN-2208" d="M84 250Q84 372 166 450T360 539Q361 539 377 539T419 540T469 540H568Q583 532 583 520Q583 511 570 501L466 500Q355 499 329 494Q280 482 242 458T183 409T147 354T129 306T124 272V270H568Q583 262 583 250T568 230H124V228Q124 207 134 177T167 112T231 48T328 7Q355 1 466 0H570Q583 -10 583 -20Q583 -32 568 -40H471Q464 -40 446 -40T417 -41Q262 -41 172 45Q84 127 84 250Z"></path>
<path stroke-width="1" id="E1-MJMAIN-5B" d="M118 -250V750H255V710H158V-210H255V-250H118Z"></path>
<path stroke-width="1" id="E1-MJMAIN-5D" d="M22 710V750H159V-250H22V-210H119V710H22Z"></path>
<path stroke-width="1" id="E1-MJMAIN-52" d="M130 622Q123 629 119 631T103 634T60 637H27V683H202H236H300Q376 683 417 677T500 648Q595 600 609 517Q610 512 610 501Q610 468 594 439T556 392T511 361T472 343L456 338Q459 335 467 332Q497 316 516 298T545 254T559 211T568 155T578 94Q588 46 602 31T640 16H645Q660 16 674 32T692 87Q692 98 696 101T712 105T728 103T732 90Q732 59 716 27T672 -16Q656 -22 630 -22Q481 -16 458 90Q456 101 456 163T449 246Q430 304 373 320L363 322L297 323H231V192L232 61Q238 51 249 49T301 46H334V0H323Q302 3 181 3Q59 3 38 0H27V46H60Q102 47 111 49T130 61V622ZM491 499V509Q491 527 490 539T481 570T462 601T424 623T362 636Q360 636 340 636T304 637H283Q238 637 234 628Q231 624 231 492V360H289Q390 360 434 378T489 456Q491 467 491 499Z"></path>
<path stroke-width="1" id="E1-MJMAIN-65" d="M28 218Q28 273 48 318T98 391T163 433T229 448Q282 448 320 430T378 380T406 316T415 245Q415 238 408 231H126V216Q126 68 226 36Q246 30 270 30Q312 30 342 62Q359 79 369 104L379 128Q382 131 395 131H398Q415 131 415 121Q415 117 412 108Q393 53 349 21T250 -11Q155 -11 92 58T28 218ZM333 275Q322 403 238 411H236Q228 411 220 410T195 402T166 381T143 340T127 274V267H333V275Z"></path>
<path stroke-width="1" id="E1-MJMAIN-4C" d="M128 622Q121 629 117 631T101 634T58 637H25V683H36Q48 680 182 680Q324 680 348 683H360V637H333Q273 637 258 635T233 622L232 342V129Q232 57 237 52Q243 47 313 47Q384 47 410 53Q470 70 498 110T536 221Q536 226 537 238T540 261T542 272T562 273H582V268Q580 265 568 137T554 5V0H25V46H58Q100 47 109 49T128 61V622Z"></path>
<path stroke-width="1" id="E1-MJMAIN-75" d="M383 58Q327 -10 256 -10H249Q124 -10 105 89Q104 96 103 226Q102 335 102 348T96 369Q86 385 36 385H25V408Q25 431 27 431L38 432Q48 433 67 434T105 436Q122 437 142 438T172 441T184 442H187V261Q188 77 190 64Q193 49 204 40Q224 26 264 26Q290 26 311 35T343 58T363 90T375 120T379 144Q379 145 379 161T380 201T380 248V315Q380 361 370 372T320 385H302V431Q304 431 378 436T457 442H464V264Q464 84 465 81Q468 61 479 55T524 46H542V0Q540 0 467 -5T390 -11H383V58Z"></path>
<path stroke-width="1" id="E1-MJMATHI-67" d="M311 43Q296 30 267 15T206 0Q143 0 105 45T66 160Q66 265 143 353T314 442Q361 442 401 394L404 398Q406 401 409 404T418 412T431 419T447 422Q461 422 470 413T480 394Q480 379 423 152T363 -80Q345 -134 286 -169T151 -205Q10 -205 10 -137Q10 -111 28 -91T74 -71Q89 -71 102 -80T116 -111Q116 -121 114 -130T107 -144T99 -154T92 -162L90 -164H91Q101 -167 151 -167Q189 -167 211 -155Q234 -144 254 -122T282 -75Q288 -56 298 -13Q311 35 311 43ZM384 328L380 339Q377 350 375 354T369 368T359 382T346 393T328 402T306 405Q262 405 221 352Q191 313 171 233T151 117Q151 38 213 38Q269 38 323 108L331 118L384 328Z"></path>
<path stroke-width="1" id="E1-MJMATHI-61" d="M33 157Q33 258 109 349T280 441Q331 441 370 392Q386 422 416 422Q429 422 439 414T449 394Q449 381 412 234T374 68Q374 43 381 35T402 26Q411 27 422 35Q443 55 463 131Q469 151 473 152Q475 153 483 153H487Q506 153 506 144Q506 138 501 117T481 63T449 13Q436 0 417 -8Q409 -10 393 -10Q359 -10 336 5T306 36L300 51Q299 52 296 50Q294 48 292 46Q233 -10 172 -10Q117 -10 75 30T33 157ZM351 328Q351 334 346 350T323 385T277 405Q242 405 210 374T160 293Q131 214 119 129Q119 126 119 118T118 106Q118 61 136 44T179 26Q217 26 254 59T298 110Q300 114 325 217T351 328Z"></path>
<path stroke-width="1" id="E1-MJMATHI-62" d="M73 647Q73 657 77 670T89 683Q90 683 161 688T234 694Q246 694 246 685T212 542Q204 508 195 472T180 418L176 399Q176 396 182 402Q231 442 283 442Q345 442 383 396T422 280Q422 169 343 79T173 -11Q123 -11 82 27T40 150V159Q40 180 48 217T97 414Q147 611 147 623T109 637Q104 637 101 637H96Q86 637 83 637T76 640T73 647ZM336 325V331Q336 405 275 405Q258 405 240 397T207 376T181 352T163 330L157 322L136 236Q114 150 114 114Q114 66 138 42Q154 26 178 26Q211 26 245 58Q270 81 285 114T318 219Q336 291 336 325Z"></path>
<path stroke-width="1" id="E1-MJMAIN-2260" d="M166 -215T159 -215T147 -212T141 -204T139 -197Q139 -190 144 -183L306 133H70Q56 140 56 153Q56 168 72 173H327L406 327H72Q56 332 56 347Q56 360 70 367H426Q597 702 602 707Q605 716 618 716Q625 716 630 712T636 703T638 696Q638 692 471 367H707Q722 359 722 347Q722 336 708 328L451 327L371 173H708Q722 163 722 153Q722 140 707 133H351Q175 -210 170 -212Q166 -215 159 -215Z"></path>
<path stroke-width="1" id="E1-MJSZ1-28" d="M152 251Q152 646 388 850H416Q422 844 422 841Q422 837 403 816T357 753T302 649T255 482T236 250Q236 124 255 19T301 -147T356 -251T403 -315T422 -340Q422 -343 416 -349H388Q359 -325 332 -296T271 -213T212 -97T170 56T152 251Z"></path>
<path stroke-width="1" id="E1-MJSZ1-29" d="M305 251Q305 -145 69 -349H56Q43 -349 39 -347T35 -338Q37 -333 60 -307T108 -239T160 -136T204 27T221 250T204 473T160 636T108 740T60 807T35 839Q35 850 50 850H56H69Q197 743 256 566Q305 425 305 251Z"></path>
</defs>
<g stroke="currentColor" fill="currentColor" stroke-width="0" transform="matrix(1 0 0 -1 0 0)">
<g transform="translate(3536,0)">
<g transform="translate(167,0)">
<g transform="translate(389,0)">
<g transform="translate(4078,4733)">
 <use xlink:href="#E1-MJMATHI-66" x="0" y="0"></use>
 <use xlink:href="#E1-MJMAIN-28" x="550" y="0"></use>
 <use xlink:href="#E1-MJMATHI-78" x="940" y="0"></use>
 <use xlink:href="#E1-MJMAIN-29" x="1512" y="0"></use>
</g>
<g transform="translate(419,3282)">
 <use xlink:href="#E1-MJMATHI-66" x="0" y="0"></use>
 <use xlink:href="#E1-MJMAIN-28" x="550" y="0"></use>
 <use xlink:href="#E1-MJMATHI-78" x="940" y="0"></use>
 <use xlink:href="#E1-MJMAIN-29" x="1512" y="0"></use>
 <use xlink:href="#E1-MJMAIN-3D" x="2179" y="0"></use>
 <use xlink:href="#E1-MJMAIN-2212" x="3236" y="0"></use>
<g transform="translate(4181,0)">
 <use xlink:href="#E1-MJMAIN-6C"></use>
 <use xlink:href="#E1-MJMAIN-6E" x="278" y="0"></use>
</g>
 <use xlink:href="#E1-MJMAIN-28" x="5016" y="0"></use>
 <use xlink:href="#E1-MJMATHI-78" x="5405" y="0"></use>
 <use xlink:href="#E1-MJMAIN-29" x="5978" y="0"></use>
 <use xlink:href="#E1-MJMAIN-2C" x="6367" y="0"></use>
 <use xlink:href="#E1-MJMATHI-78" x="6812" y="0"></use>
 <use xlink:href="#E1-MJMAIN-3E" x="7663" y="0"></use>
 <use xlink:href="#E1-MJMAIN-30" x="8719" y="0"></use>
</g>
<g transform="translate(2925,1831)">
 <use xlink:href="#E1-MJMATHI-66" x="0" y="0"></use>
 <use xlink:href="#E1-MJMAIN-28" x="550" y="0"></use>
 <use xlink:href="#E1-MJMATHI-78" x="940" y="0"></use>
 <use xlink:href="#E1-MJMAIN-29" x="1512" y="0"></use>
 <use xlink:href="#E1-MJMAIN-3D" x="2179" y="0"></use>
<g transform="translate(3236,0)">
 <use xlink:href="#E1-MJMATHI-65" x="0" y="0"></use>
 <use transform="scale(0.707)" xlink:href="#E1-MJMATHI-78" x="659" y="513"></use>
</g>
</g>
<g transform="translate(2898,263)">
 <use xlink:href="#E1-MJMATHI-66" x="0" y="0"></use>
 <use xlink:href="#E1-MJMAIN-28" x="550" y="0"></use>
 <use xlink:href="#E1-MJMATHI-78" x="940" y="0"></use>
 <use xlink:href="#E1-MJMAIN-29" x="1512" y="0"></use>
 <use xlink:href="#E1-MJMAIN-3D" x="2179" y="0"></use>
<g transform="translate(3236,0)">
 <use xlink:href="#E1-MJMATHI-78" x="0" y="0"></use>
 <use transform="scale(0.707)" xlink:href="#E1-MJMAIN-32" x="809" y="513"></use>
</g>
</g>
<g transform="translate(1536,-1568)">
 <use xlink:href="#E1-MJMATHI-66" x="0" y="0"></use>
 <use xlink:href="#E1-MJMAIN-28" x="550" y="0"></use>
 <use xlink:href="#E1-MJMATHI-78" x="940" y="0"></use>
 <use xlink:href="#E1-MJMAIN-29" x="1512" y="0"></use>
 <use xlink:href="#E1-MJMAIN-3D" x="2179" y="0"></use>
<g transform="translate(3236,0)">
 <use xlink:href="#E1-MJSZ1-221A" x="0" y="94"></use>
<rect stroke="none" width="2749" height="60" x="1000" y="885"></rect>
<g transform="translate(1000,0)">
 <use xlink:href="#E1-MJMAIN-31" x="0" y="0"></use>
 <use xlink:href="#E1-MJMAIN-2B" x="722" y="0"></use>
<g transform="translate(1723,0)">
 <use xlink:href="#E1-MJMATHI-78" x="0" y="0"></use>
 <use transform="scale(0.707)" xlink:href="#E1-MJMAIN-32" x="809" y="408"></use>
</g>
</g>
</g>
</g>
<g transform="translate(1039,-3085)">
 <use xlink:href="#E1-MJMATHI-66" x="0" y="0"></use>
 <use xlink:href="#E1-MJMAIN-28" x="550" y="0"></use>
 <use xlink:href="#E1-MJMATHI-78" x="940" y="0"></use>
 <use xlink:href="#E1-MJMAIN-29" x="1512" y="0"></use>
 <use xlink:href="#E1-MJMAIN-3D" x="2179" y="0"></use>
 <use xlink:href="#E1-MJMAIN-30" x="3236" y="0"></use>
 <use xlink:href="#E1-MJMAIN-2C" x="3736" y="0"></use>
 <use xlink:href="#E1-MJMATHI-78" x="4181" y="0"></use>
 <use xlink:href="#E1-MJMAIN-2208" x="5032" y="0"></use>
 <use xlink:href="#E1-MJMAIN-5B" x="5977" y="0"></use>
 <use xlink:href="#E1-MJMAIN-30" x="6255" y="0"></use>
 <use xlink:href="#E1-MJMAIN-2C" x="6756" y="0"></use>
 <use xlink:href="#E1-MJMAIN-31" x="7201" y="0"></use>
 <use xlink:href="#E1-MJMAIN-5D" x="7701" y="0"></use>
</g>
<g transform="translate(0,-4681)">
 <use xlink:href="#E1-MJMATHI-66" x="0" y="0"></use>
 <use xlink:href="#E1-MJMAIN-28" x="550" y="0"></use>
 <use xlink:href="#E1-MJMATHI-78" x="940" y="0"></use>
 <use xlink:href="#E1-MJMAIN-29" x="1512" y="0"></use>
 <use xlink:href="#E1-MJMAIN-3D" x="2179" y="0"></use>
 <use xlink:href="#E1-MJMATHI-67" x="3236" y="0"></use>
 <use xlink:href="#E1-MJMAIN-28" x="3716" y="0"></use>
 <use xlink:href="#E1-MJMATHI-61" x="4106" y="0"></use>
 <use xlink:href="#E1-MJMATHI-78" x="4635" y="0"></use>
 <use xlink:href="#E1-MJMAIN-2212" x="5430" y="0"></use>
 <use xlink:href="#E1-MJMATHI-62" x="6431" y="0"></use>
 <use xlink:href="#E1-MJMAIN-29" x="6860" y="0"></use>
 <use xlink:href="#E1-MJMAIN-2C" x="7250" y="0"></use>
 <use xlink:href="#E1-MJMATHI-61" x="7695" y="0"></use>
 <use xlink:href="#E1-MJMAIN-2260" x="8502" y="0"></use>
 <use xlink:href="#E1-MJMAIN-30" x="9558" y="0"></use>
</g>
</g>
<line stroke-linecap="square" stroke-width="20.9" y1="10" x2="10" x1="10" y2="10986" transform="translate(10948,-5249)"></line>
<g transform="translate(11448,0)">
<g transform="translate(5368,4733)">
 <use xlink:href="#E1-MJMATHI-66" x="0" y="0"></use>
 <use transform="scale(0.707)" xlink:href="#E1-MJMAIN-2217" x="804" y="513"></use>
 <use xlink:href="#E1-MJMAIN-28" x="1022" y="0"></use>
 <use xlink:href="#E1-MJMATHI-79" x="1411" y="0"></use>
 <use xlink:href="#E1-MJMAIN-29" x="1909" y="0"></use>
</g>
<g transform="translate(339,3282)">
 <use xlink:href="#E1-MJMATHI-66" x="0" y="0"></use>
 <use transform="scale(0.707)" xlink:href="#E1-MJMAIN-2217" x="804" y="513"></use>
 <use xlink:href="#E1-MJMAIN-28" x="1022" y="0"></use>
 <use xlink:href="#E1-MJMATHI-79" x="1411" y="0"></use>
 <use xlink:href="#E1-MJMAIN-29" x="1909" y="0"></use>
 <use xlink:href="#E1-MJMAIN-3D" x="2576" y="0"></use>
 <use xlink:href="#E1-MJMAIN-2212" x="3633" y="0"></use>
 <use xlink:href="#E1-MJMAIN-31" x="4411" y="0"></use>
 <use xlink:href="#E1-MJMAIN-2212" x="5134" y="0"></use>
<g transform="translate(6134,0)">
 <use xlink:href="#E1-MJMAIN-6C"></use>
 <use xlink:href="#E1-MJMAIN-6E" x="278" y="0"></use>
</g>
 <use xlink:href="#E1-MJMAIN-28" x="6969" y="0"></use>
 <use xlink:href="#E1-MJMAIN-2212" x="7359" y="0"></use>
 <use xlink:href="#E1-MJMATHI-79" x="8137" y="0"></use>
 <use xlink:href="#E1-MJMAIN-29" x="8635" y="0"></use>
 <use xlink:href="#E1-MJMAIN-29" x="9024" y="0"></use>
 <use xlink:href="#E1-MJMAIN-2C" x="9581" y="0"></use>
 <use xlink:href="#E1-MJMATHI-79" x="10026" y="0"></use>
 <use xlink:href="#E1-MJMAIN-3C" x="10801" y="0"></use>
 <use xlink:href="#E1-MJMAIN-30" x="11857" y="0"></use>
</g>
<g transform="translate(1065,1831)">
 <use xlink:href="#E1-MJMATHI-66" x="0" y="0"></use>
 <use transform="scale(0.707)" xlink:href="#E1-MJMAIN-2217" x="804" y="513"></use>
 <use xlink:href="#E1-MJMAIN-28" x="1022" y="0"></use>
 <use xlink:href="#E1-MJMATHI-79" x="1411" y="0"></use>
 <use xlink:href="#E1-MJMAIN-29" x="1909" y="0"></use>
 <use xlink:href="#E1-MJMAIN-3D" x="2576" y="0"></use>
 <use xlink:href="#E1-MJMATHI-79" x="3633" y="0"></use>
<g transform="translate(4297,0)">
 <use xlink:href="#E1-MJMAIN-6C"></use>
 <use xlink:href="#E1-MJMAIN-6E" x="278" y="0"></use>
</g>
 <use xlink:href="#E1-MJMAIN-28" x="5132" y="0"></use>
 <use xlink:href="#E1-MJMATHI-79" x="5521" y="0"></use>
 <use xlink:href="#E1-MJMAIN-29" x="6019" y="0"></use>
 <use xlink:href="#E1-MJMAIN-2212" x="6630" y="0"></use>
 <use xlink:href="#E1-MJMATHI-79" x="7631" y="0"></use>
 <use xlink:href="#E1-MJMAIN-2C" x="8129" y="0"></use>
 <use xlink:href="#E1-MJMATHI-79" x="8574" y="0"></use>
 <use xlink:href="#E1-MJMAIN-3E" x="9349" y="0"></use>
 <use xlink:href="#E1-MJMAIN-30" x="10405" y="0"></use>
</g>
<g transform="translate(3867,263)">
 <use xlink:href="#E1-MJMATHI-66" x="0" y="0"></use>
 <use transform="scale(0.707)" xlink:href="#E1-MJMAIN-2217" x="804" y="513"></use>
 <use xlink:href="#E1-MJMAIN-28" x="1022" y="0"></use>
 <use xlink:href="#E1-MJMATHI-79" x="1411" y="0"></use>
 <use xlink:href="#E1-MJMAIN-29" x="1909" y="0"></use>
 <use xlink:href="#E1-MJMAIN-3D" x="2576" y="0"></use>
<g transform="translate(3355,0)">
<g transform="translate(397,0)">
<rect stroke="none" width="473" height="60" x="0" y="220"></rect>
 <use transform="scale(0.707)" xlink:href="#E1-MJMAIN-31" x="84" y="629"></use>
 <use transform="scale(0.707)" xlink:href="#E1-MJMAIN-34" x="84" y="-600"></use>
</g>
</g>
<g transform="translate(4346,0)">
 <use xlink:href="#E1-MJMATHI-79" x="0" y="0"></use>
 <use transform="scale(0.707)" xlink:href="#E1-MJMAIN-32" x="706" y="513"></use>
</g>
</g>
<g transform="translate(0,-1568)">
 <use xlink:href="#E1-MJMATHI-66" x="0" y="0"></use>
 <use transform="scale(0.707)" xlink:href="#E1-MJMAIN-2217" x="804" y="513"></use>
 <use xlink:href="#E1-MJMAIN-28" x="1022" y="0"></use>
 <use xlink:href="#E1-MJMATHI-79" x="1411" y="0"></use>
 <use xlink:href="#E1-MJMAIN-29" x="1909" y="0"></use>
 <use xlink:href="#E1-MJMAIN-3D" x="2576" y="0"></use>
 <use xlink:href="#E1-MJMAIN-2212" x="3633" y="0"></use>
<g transform="translate(4411,0)">
 <use xlink:href="#E1-MJSZ1-221A" x="0" y="33"></use>
<rect stroke="none" width="2677" height="60" x="1000" y="824"></rect>
<g transform="translate(1000,0)">
 <use xlink:href="#E1-MJMAIN-31" x="0" y="0"></use>
 <use xlink:href="#E1-MJMAIN-2212" x="722" y="0"></use>
<g transform="translate(1723,0)">
 <use xlink:href="#E1-MJMATHI-79" x="0" y="0"></use>
 <use transform="scale(0.707)" xlink:href="#E1-MJMAIN-32" x="706" y="408"></use>
</g>
</g>
</g>
 <use xlink:href="#E1-MJMAIN-2C" x="8089" y="0"></use>
 <use xlink:href="#E1-MJMATHI-79" x="8534" y="0"></use>
 <use xlink:href="#E1-MJMAIN-2208" x="9309" y="0"></use>
 <use xlink:href="#E1-MJMAIN-5B" x="10254" y="0"></use>
 <use xlink:href="#E1-MJMAIN-2212" x="10533" y="0"></use>
 <use xlink:href="#E1-MJMAIN-31" x="11311" y="0"></use>
 <use xlink:href="#E1-MJMAIN-2C" x="11812" y="0"></use>
 <use xlink:href="#E1-MJMAIN-31" x="12257" y="0"></use>
 <use xlink:href="#E1-MJMAIN-5D" x="12757" y="0"></use>
</g>
<g transform="translate(2881,-3085)">
 <use xlink:href="#E1-MJMATHI-66" x="0" y="0"></use>
 <use transform="scale(0.707)" xlink:href="#E1-MJMAIN-2217" x="804" y="513"></use>
 <use xlink:href="#E1-MJMAIN-28" x="1022" y="0"></use>
 <use xlink:href="#E1-MJMATHI-79" x="1411" y="0"></use>
 <use xlink:href="#E1-MJMAIN-29" x="1909" y="0"></use>
 <use xlink:href="#E1-MJMAIN-3D" x="2576" y="0"></use>
<g transform="translate(3633,0)">
 <use xlink:href="#E1-MJMAIN-52"></use>
 <use xlink:href="#E1-MJMAIN-65" x="736" y="0"></use>
 <use xlink:href="#E1-MJMAIN-4C" x="1181" y="0"></use>
 <use xlink:href="#E1-MJMAIN-75" x="1806" y="0"></use>
</g>
 <use xlink:href="#E1-MJMAIN-28" x="5996" y="0"></use>
 <use xlink:href="#E1-MJMATHI-79" x="6385" y="0"></use>
 <use xlink:href="#E1-MJMAIN-29" x="6883" y="0"></use>
</g>
<g transform="translate(2097,-4681)">
 <use xlink:href="#E1-MJMATHI-66" x="0" y="0"></use>
 <use transform="scale(0.707)" xlink:href="#E1-MJMAIN-2217" x="804" y="513"></use>
 <use xlink:href="#E1-MJMAIN-28" x="1022" y="0"></use>
 <use xlink:href="#E1-MJMATHI-79" x="1411" y="0"></use>
 <use xlink:href="#E1-MJMAIN-29" x="1909" y="0"></use>
 <use xlink:href="#E1-MJMAIN-3D" x="2576" y="0"></use>
<g transform="translate(3355,0)">
<g transform="translate(397,0)">
<rect stroke="none" width="494" height="60" x="0" y="220"></rect>
 <use transform="scale(0.707)" xlink:href="#E1-MJMATHI-62" x="134" y="640"></use>
 <use transform="scale(0.707)" xlink:href="#E1-MJMATHI-61" x="84" y="-488"></use>
</g>
</g>
 <use xlink:href="#E1-MJMATHI-79" x="4367" y="0"></use>
 <use xlink:href="#E1-MJMAIN-2B" x="5087" y="0"></use>
<g transform="translate(6087,0)">
 <use xlink:href="#E1-MJMATHI-67" x="0" y="0"></use>
 <use transform="scale(0.707)" xlink:href="#E1-MJMAIN-2217" x="680" y="513"></use>
</g>
<g transform="translate(7189,0)">
 <use xlink:href="#E1-MJSZ1-28"></use>
<g transform="translate(458,0)">
<g transform="translate(120,0)">
<rect stroke="none" width="494" height="60" x="0" y="220"></rect>
 <use transform="scale(0.707)" xlink:href="#E1-MJMATHI-79" x="100" y="834"></use>
 <use transform="scale(0.707)" xlink:href="#E1-MJMATHI-61" x="84" y="-488"></use>
</g>
</g>
 <use xlink:href="#E1-MJSZ1-29" x="1192" y="-1"></use>
</g>
</g>
</g>
<line stroke-linecap="square" stroke-width="20.9" y2="10" y1="10" x1="10" x2="24874" transform="translate(0,5727)"></line>
<line stroke-linecap="square" stroke-width="20.9" y2="10" y1="10" x1="10" x2="24874" transform="translate(0,-5249)"></line>
<line stroke-linecap="square" stroke-width="20.9" y1="10" x2="10" x1="10" y2="10986" transform="translate(0,-5249)"></line>
<line stroke-linecap="square" stroke-width="20.9" y1="10" x2="10" x1="10" y2="10986" transform="translate(24864,-5249)"></line>
<line stroke-linecap="square" stroke-width="20.9" y2="10" y1="10" x1="10" x2="24874" transform="translate(0,4271)"></line>
<line stroke-linecap="square" stroke-width="20.9" y2="10" y1="10" x1="10" x2="24874" transform="translate(0,2820)"></line>
<line stroke-linecap="square" stroke-width="20.9" y2="10" y1="10" x1="10" x2="24874" transform="translate(0,1369)"></line>
<line stroke-linecap="square" stroke-width="20.9" y2="10" y1="10" x1="10" x2="24874" transform="translate(0,-372)"></line>
<line stroke-linecap="square" stroke-width="20.9" y2="10" y1="10" x1="10" x2="24874" transform="translate(0,-2096)"></line>
<line stroke-linecap="square" stroke-width="20.9" y2="10" y1="10" x1="10" x2="24874" transform="translate(0,-3547)"></line>
</g>
</g>
</g>
</svg>