<svg fill="none" height="400" viewBox="0 0 1040 400" width="1040" xmlns="http://www.w3.org/2000/svg" xmlns:xlink="http://www.w3.org/1999/xlink"><mask id="a" height="142" maskUnits="userSpaceOnUse" width="159" x="440" y="56"><path d="m440.756 124 79-68 79 68v74h-158z" fill="#f5a2a2"/></mask><mask id="b" height="57" maskUnits="userSpaceOnUse" width="16" x="569" y="306"><path d="m569.311 356.987 3.523-50.377 11.971.837-1.012 14.465-3.875 5.242 3.108 5.731-.628 8.978-3.875 5.243 3.108 5.73-.349 4.988-6.334 4.569z" fill="#783a3a"/></mask><path d="m0 0h1040v400h-1040z" fill="#33103f"/><rect fill="#fde5c2" height="320" rx="100" width="530" x="255" y="40"/><path d="m352.905 362.568s-36.919-16.407-46.075-58.431" stroke="#33103f" stroke-miterlimit="10" stroke-width="2"/><g fill="#33103f"><path d="m341.128 355.441s-8.641 9.804-21.07 2.503c0 0 5.776-7.594 18.906-4.119 0 0-5.573-10.453 2.567-18.235.002.01 6.43 8.609-.403 19.851z"/><path d="m328.66 344.628s-12.47 7.823-21.197-1.605c0 0 10.026-5.981 19.223-.504 0 0-2.293-10.523 6.004-16.834.01-.002 3.976 11.252-4.03 18.943z"/><path d="m318.719 332.26s-13.862 5.661-20.701-5.857c0 0 10.616-4.78 19.506 3.989 0 0-2.074-10.458 9.104-16.558-.01.002 2.222 11.747-7.909 18.426z"/><path d="m311.092 317.874s-14.776 3.066-18.888-9.701c0 0 9.766-2.384 17.761 6.784 0 0 2.845-10.946 12.958-13.477-.002-.01-.093 11.646-11.831 16.394z"/><path d="m307.629 307.473s-15.078-11.893.791-26.854c.002.01 15.605 11.45-.791 26.854z"/></g><path d="m300.461 361.385s-18.851 16.777-33.214-8.607c0 0 21.956-16.288 33.214 8.607z" fill="#fde5c2"/><path d="m695 362.187s42.074-25.933 46.298-78.38" stroke="#33103f" stroke-miterlimit="10" stroke-width="2"/><path d="m708.112 351.62s12.08 10.472 25.954-.414c0 0-8.245-8.261-23.595-1.9 0 0 5.045-13.585-6.097-21.687-.001.012-6.386 11.489 3.738 24.001z" fill="#33103f"/><path d="m721.458 336.469s16.399 7.445 25.436-5.414c0 0-13.134-5.611-23.388 2.535 0 0 1.058-13.133-10.034-19.426-.012-.001-2.979 14.291 7.986 22.305z" fill="#33103f"/><path d="m731.486 319.849s17.733 4.594 24.139-10.489c0 0-13.653-4.058-22.996 8.028 0 0 .803-13.019-13.747-18.584.012.001-.771 14.604 12.604 21.045z" fill="#33103f"/><path d="m738.378 301.159s18.416 1.299 21.312-14.853c0 0-12.23-1.291-20.423 11.132 0 0-5.24-12.805-17.915-14.219.001-.012 2.018 14.105 17.026 17.94z" fill="#33103f"/><path d="m740.875 287.982s16.334-16.886-5.354-32.427c-.001.012-17.045 16.436 5.354 32.427z" fill="#33103f"/><rect fill="#876337" height="14" rx="2" width="420" x="310" y="198"/><path clip-rule="evenodd" d="m399 50c0-1.1046.895-2 2-2h6c1.105 0 2 .8954 2 2v6.3717c0 .1355.028.2716.082.3959 5.913 13.5599 18.305 18.653 25.011 20.1175.54.1178.896.636.797 1.1794l-1.431 7.871c-.099.5434-.617.9054-1.158.7916-5.386-1.1336-14.008-4.1622-21.546-10.911-.664-.5944-1.755-.1366-1.755.7545v16.5468c0 .1376.029.2745.084.4002 6.483 14.6304 21.963 22.4844 33.479 25.8914.53.157.839.707.69 1.239l-2.157 7.704c-.149.532-.7.843-1.23.687-8.466-2.49-19.977-7.453-29.098-16.211-.652-.626-1.768-.174-1.768.729v19.439c0 .11.018.218.054.322 4.999 14.386 21.431 30.142 41.144 34.573.539.122.889.649.778 1.19l-1.603 7.838c-.111.541-.64.891-1.179.771-14.816-3.283-28.117-11.967-37.37-22.499-.623-.709-1.824-.277-1.824.666v41.143c0 .552-.448 1-1 1h-8c-.552 0-1-.448-1-1v-40.947c0-.941-1.196-1.373-1.82-.668-9.246 10.445-22.475 19.042-37.2 22.305-.539.12-1.068-.23-1.178-.771l-1.604-7.838c-.11-.541.239-1.068.778-1.19 19.483-4.379 35.762-19.821 40.965-34.069.04-.108.059-.222.059-.337v-19.762c0-.901-1.111-1.354-1.764-.732-9.094 8.656-20.514 13.573-28.928 16.048-.53.156-1.081-.155-1.229-.687l-2.158-7.704c-.148-.532.161-1.082.69-1.239 11.412-3.376 26.715-11.118 33.3-25.4931.059-.1288.089-.2697.089-.4114v-16.7797c0-.8883-1.085-1.347-1.75-.7579-7.497 6.6432-16.031 9.635-21.377 10.7602-.54.1137-1.059-.2482-1.157-.7916l-1.432-7.871c-.098-.5434.258-1.0616.797-1.1794 6.639-1.4499 18.851-6.4561 24.832-19.7129.057-.1274.087-.2675.087-.4073z" fill="#bd9566" fill-rule="evenodd"/><path clip-rule="evenodd" d="m639 36c0-1.1046.895-2 2-2h6c1.105 0 2 .8954 2 2v3.0432c0 .0348.035.0583.067.0449.025-.0104.054.0017.064.0265 5.714 13.5945 18.455 19.466 25.564 21.0705 1.078.2432 1.847 1.2463 1.701 2.3412l-.792 5.9474c-.146 1.0949-1.152 1.8678-2.234 1.6488-5.438-1.1-13.506-4.1016-20.755-10.0928-1.382-1.1428-3.615-.2064-3.615 1.5874v17.3552c0 .2927.064.5826.19.8467 4.987 10.428 13.179 18.3714 21.716 24.122 7.916 5.332 15.896 8.619 21.328 10.185 1.061.306 1.722 1.382 1.465 2.456l-1.398 5.836c-.257 1.074-1.337 1.739-2.4 1.441-6.463-1.811-15.595-5.571-24.582-11.625-4.304-2.899-8.63-6.362-12.63-10.437-1.307-1.331-3.689-.437-3.689 1.429v22.045c0 .11.102.192.21.168.093-.021.185.038.206.13 2.885 12.572 10.9 21.86 20.137 28.448 8.42 6.004 17.587 9.559 23.989 11.142 1.072.266 1.772 1.318 1.553 2.401l-1.19 5.88c-.219 1.083-1.272 1.786-2.347 1.528-7.552-1.812-18.097-5.882-27.811-12.81-3.807-2.715-7.529-5.901-10.9-9.596-1.299-1.423-3.847-.542-3.847 1.384v42.054c0 1.105-.895 2-2 2h-6c-1.105 0-2-.895-2-2v-41.532c0-1.912-2.51-2.798-3.814-1.4-3.247 3.481-6.801 6.5-10.433 9.09-9.714 6.928-20.259 10.998-27.811 12.81-1.075.258-2.128-.445-2.347-1.528l-1.19-5.88c-.219-1.083.481-2.135 1.553-2.401 6.402-1.583 15.569-5.138 23.989-11.142 9.092-6.485 17-15.586 19.998-27.859.037-.152.055-.309.055-.465v-21.973c0-1.854-2.355-2.752-3.667-1.441-3.865 3.867-8.019 7.171-12.152 9.955-8.987 6.054-18.119 9.814-24.582 11.625-1.063.298-2.143-.367-2.4-1.441l-1.398-5.836c-.257-1.074.404-2.15 1.465-2.456 5.432-1.566 13.412-4.853 21.328-10.185 8.246-5.555 16.171-13.1561 21.196-23.0665.139-.2748.21-.5794.21-.8875v-17.974c0-1.7786-2.196-2.7185-3.581-1.603-7.127 5.7386-14.968 8.6361-20.289 9.7126-1.083.219-2.088-.554-2.234-1.6489l-.793-5.9474c-.145-1.0949.625-2.0982 1.703-2.3414 6.889-1.5553 19.066-7.1172 25.013-19.8304.12-.2574.181-.5414.181-.8257z" fill="#33103f" fill-rule="evenodd"/><path clip-rule="evenodd" d="m344 110c0-1.105-.895-2-2-2h-6c-1.105 0-2 .895-2 2v3.174c-1.559 11.334-10.567 16.729-16.42 18.441-1.06.311-1.788 1.342-1.597 2.43l1.034 5.91c.191 1.088 1.227 1.82 2.297 1.543 3.181-.823 7.236-2.458 11.147-5.16 1.428-.986 3.539-.022 3.539 1.714v14.102c0 .263-.051.523-.154.763-2.721 6.312-8.049 12.053-14.051 16.596-5.367 4.063-10.793 6.807-14.479 8.057-1.046.355-1.722 1.427-1.478 2.504l1.324 5.852c.244 1.077 1.316 1.756 2.372 1.434 5.166-1.579 11.976-5.089 18.296-9.873 1.533-1.161 3.069-2.419 4.569-3.772 1.345-1.211 3.601-.29 3.601 1.52v20.765c0 1.105.895 2 2 2h6c1.105 0 2-.895 2-2v-57.448c0-1.736 2.111-2.7 3.539-1.714 3.911 2.702 7.966 4.337 11.147 5.16 1.07.277 2.106-.455 2.297-1.543l1.034-5.91c.191-1.088-.537-2.119-1.597-2.43-5.853-1.712-14.861-7.107-16.42-18.441z" fill="#e1c291" fill-rule="evenodd"/><path d="m689 167c-17.121 0-31 13.879-31 31h62c0-17.121-13.879-31-31-31z" fill="#e1c291"/><path d="m442.288 56.4643c.268-1.9841 1.961-3.4643 3.964-3.4643h147.008c2.002 0 3.696 1.4802 3.964 3.4643l9.532 70.5357h-174z" fill="#533d23"/><path d="m440.756 124 79-68 79 68v74h-158z" fill="#bd9566"/><g mask="url(#a)"><path clip-rule="evenodd" d="m520.006 63.2119.005-.0067 88 75.4998-6.511 7.59-81.494-69.9186-81.495 69.9186-6.511-7.59 88-75.4998z" fill="#876337" fill-rule="evenodd"/></g><path clip-rule="evenodd" d="m520.006 50.2119.005-.0067 88 75.4998-6.511 7.59-81.494-69.9186-81.495 69.9186-6.511-7.59 88-75.4998z" fill="#fff9ef" fill-rule="evenodd"/><path d="m460.756 37h20v16h-20z" fill="#33103f"/><path d="m456.756 30c0-.5523.447-1 1-1h26c.552 0 1 .4477 1 1v6c0 .5523-.448 1-1 1h-26c-.553 0-1-.4477-1-1z" fill="#876337"/><path clip-rule="evenodd" d="m598.756 152h-158v10h158zm0 24h-158v10h158z" fill="#e1c291" fill-rule="evenodd"/><path d="m504.756 167c0-8.284 6.715-15 15-15 8.284 0 15 6.716 15 15v31h-30z" fill="#533d23"/><rect fill="#eb7100" height="6" rx="1.5" width="3" x="508.756" y="178"/><circle cx="519.756" cy="118" fill="#533d23" r="10"/><path d="m380 212h280v20c0 11.046-8.954 20-20 20h-240c-11.046 0-20-8.954-20-20z" fill="#533d23"/><circle cx="456" cy="291" r="15" stroke="#fff" stroke-width="6"/><path d="m440.879 240.344 16.913-8.291c2.515-1.233 5.485.433 5.744 3.222l3.707 39.954c.154 1.665-.744 3.251-2.252 3.975l-6.19 2.971c-2.066.992-4.541.048-5.423-2.067l-14.431-34.634c-.813-1.952.033-4.2 1.932-5.13z" stroke="#0572ec" stroke-width="4"/><path d="m465 250 1 12.5" stroke="#02346e" stroke-linecap="round" stroke-width="8"/><path d="m485.42 359.318-24.25-42.002 9.526-5.5 3.75 6.495-1.098 4.098 4.098 1.098-1.098 4.098 4.098 1.098 2.25 3.897-1.098 4.098 4.098 1.098 5.25 9.094-1.098 4.098 4.098 1.098 1 1.732-2.013 7.513z" fill="#ffaa05"/><path clip-rule="evenodd" d="m474.5 330.404c9.088-5.247 12.201-16.867 6.954-25.954-5.246-9.088-16.866-12.202-25.954-6.955s-12.201 16.867-6.954 25.955c5.246 9.087 16.866 12.201 25.954 6.954zm-11.5-19.919c2.391-1.38 3.211-4.438 1.83-6.83-1.381-2.391-4.439-3.21-6.83-1.83-2.391 1.381-3.211 4.439-1.83 6.83 1.381 2.392 4.439 3.211 6.83 1.83z" fill="#ffaa05" fill-rule="evenodd"/><path d="m452 375.5v-48.5h13v7.5l-3 3 3 3-3 3 3 3v4.5l-3 3 3 3v10.5l-3 3 3 3v2l-6.5 5.5z" fill="#733c86"/><path clip-rule="evenodd" d="m458 332c10.493 0 19-8.507 19-19s-8.507-19-19-19-19 8.507-19 19 8.507 19 19 19zm0-20c2.761 0 5-2.239 5-5s-2.239-5-5-5-5 2.239-5 5 2.239 5 5 5z" fill="#733c86" fill-rule="evenodd"/><rect fill="#fff" height="4" rx="2" width="14" x="452" y="320"/><path d="m444 291c0-6.627 5.373-12 12-12v-6c-9.941 0-18 8.059-18 18z" fill="#fff"/><path d="m456 303c6.627 0 12-5.373 12-12h6c0 9.941-8.059 18-18 18z" fill="#fff"/><circle cx="586" cy="262" r="28" stroke="#ffaa05" stroke-width="4"/><path d="m569.311 356.987 3.523-50.377 11.971.837-1.012 14.465-3.875 5.242 3.108 5.731-.628 8.978-3.875 5.243 3.108 5.73-.349 4.988-6.334 4.569z" fill="#51d7de"/><g mask="url(#b)"><path d="m575.328 306.784 1.995.14-4.185 59.854-1.995-.14z" fill="#fff"/></g><rect height="26" rx="6" stroke="#51d7de" stroke-width="8" transform="matrix(.99756405 .06975647 -.06975647 .99756405 20.730332 -38.375051)" width="42" x="559.824" y="277.632"/><path d="m605.345 358.445-14.987-46.126 12.364-4.017 2.317 7.133-1.926 3.78 3.78 1.926-1.926 3.78 3.78 1.926 1.391 4.28-1.926 3.78 3.78 1.927 3.245 9.986-1.926 3.78 3.78 1.926-.333 2.211-3.531 6.931z" fill="#0572ec"/><path clip-rule="evenodd" d="m596.991 313.318c9.98-3.243 15.442-13.961 12.199-23.941s-13.962-15.442-23.941-12.199c-9.98 3.243-15.442 13.962-12.199 23.941 3.243 9.98 13.961 15.442 23.941 12.199zm-6.18-19.021c2.626-.853 4.063-3.674 3.21-6.3-.853-2.627-3.674-4.064-6.3-3.211-2.626.854-4.064 3.675-3.21 6.301.853 2.626 3.674 4.063 6.3 3.21z" fill="#0572ec" fill-rule="evenodd"/><rect fill="#fff" height="4" rx="2" transform="matrix(.95105652 -.30901699 .30901699 .95105652 -65.108937 196.438351)" width="14" x="587.577" y="303.76"/><path d="m586 288c14.359 0 26-11.641 26-26s-11.641-26-26-26v-4c16.569 0 30 13.431 30 30s-13.431 30-30 30z" fill="#ffaa05"/><rect fill="#fff9ef" height="24" rx="4" width="8" x="450" y="220"/><rect fill="#fff9ef" height="24" rx="4" width="8" x="582" y="220"/></svg>